<svg width="60" height="60" viewBox="0 0 60 60" fill="none" xmlns="http://www.w3.org/2000/svg">
<path fill-rule="evenodd" clip-rule="evenodd" d="M50.9778 0C55.9606 0 60 4.0394 60 9.02225V50.9778C60 55.9606 55.9606 60 50.9778 60H9.02225C4.0394 60 0 55.9606 0 50.9778V9.02225C0 4.0394 4.0394 0 9.02225 0H50.9778ZM36.1689 14.3487C36.1689 18.5402 33.0815 22.0109 29.0563 22.6117C29.015 22.9213 29.0809 23.2045 29.3629 23.4145C31.7917 25.2239 38.2154 25.7548 43.9812 23.6274L46.1659 29.6339C42.9977 31.381 38.2556 32.3934 32.1837 31.818L48.1321 47.8718L42.2224 53.1888L29.9538 40.3053C25.3845 48.3097 19.5212 51.8324 14.6355 54.7679L14.6341 54.7687C14.2134 55.0215 13.8 55.2699 13.3952 55.5164L9.10534 48.75C22.5378 40.27 22.1231 34.8971 21.7535 30.1088C21.5658 27.6779 21.3898 25.3978 23.043 22.9382C23.2212 22.6732 23.0835 22.2712 22.9423 21.8585C22.8403 21.5606 22.7364 21.2572 22.7481 20.9958C20.7464 19.4694 19.4548 17.0598 19.4548 14.3487C19.4548 9.73432 23.1964 5.99365 27.8118 5.99365C32.4273 5.99365 36.1689 9.73432 36.1689 14.3487Z" fill="#09090B"/>
</svg>
