<svg width="60" height="60" viewBox="0 0 60 60" fill="none" xmlns="http://www.w3.org/2000/svg">
<path d="M31.9712 24.1815C33.7085 24.0566 35.4085 23.6066 36.9955 22.8692C38.7345 22.1474 40.4145 21.2908 42.02 20.3071L42.5573 19.9696L40.62 13.3705C40.5325 12.9706 40.3703 12.5956 40.145 12.2457C39.9043 11.867 39.5885 11.5411 39.2183 11.2875C38.8477 11.034 38.4297 10.8581 37.9893 10.7706C37.5492 10.683 37.0958 10.6854 36.6562 10.7779C36.217 10.8703 35.801 11.0507 35.4333 11.3083C34.6582 11.8457 33.7085 12.0332 32.796 11.8082L32.1213 11.6707L38.7702 15.5327L20.8978 10.121C20.526 10.0084 20.1339 9.97935 19.7495 10.0359C19.3652 10.0925 18.9981 10.2333 18.6745 10.4482C18.3509 10.6632 18.0788 10.947 17.8776 11.2793C17.6764 11.6116 17.5512 11.9843 17.5108 12.3706V12.4332L16.6234 19.9196L17.8732 20.4196L17.9107 20.4445C19.9854 21.2694 22.4851 22.1568 24.8224 22.8567C26.497 23.3941 28.1968 23.7941 29.934 24.0565C30.61 24.1378 31.2902 24.1795 31.9712 24.1815ZM7.2122 22.8692L7.1872 22.8567H7.1622C6.87825 22.8567 6.5971 22.9126 6.33478 23.0213C6.07243 23.1299 5.83407 23.2892 5.6333 23.49C5.4325 23.6908 5.27325 23.9292 5.1646 24.1914C5.05593 24.4539 5 24.735 5 25.0189C5 25.5939 5.24997 26.1314 5.6749 26.5062C8.67697 29.4199 12.2883 31.6311 16.2484 32.9801C16.5734 33.8551 16.9483 34.7176 17.3733 35.5424L19.0231 39.4919C19.6194 40.9141 20.49 42.2054 21.5852 43.2914L24.4599 46.1661C25.0095 46.8534 25.547 47.5156 26.072 48.1282C26.553 48.7119 27.1567 49.1821 27.8407 49.5049C28.5245 49.8276 29.2715 49.9951 30.028 49.9951C30.784 49.9951 31.531 49.8276 32.2147 49.5049C32.8987 49.1821 33.5028 48.7119 33.9835 48.1282L35.5835 46.1661L38.4705 43.2914C39.5672 42.2069 40.438 40.9154 41.0325 39.4919L42.6823 35.5549C43.1073 34.7176 43.482 33.8551 43.8073 32.9679C47.7615 31.6204 51.3682 29.4137 54.3682 26.5062C54.8182 26.0687 55.043 25.4439 54.9932 24.8065C54.9575 24.2638 54.7095 23.7568 54.302 23.3963C53.8945 23.0359 53.3615 22.8509 52.8185 22.8817H43.4198C41.5498 24.5262 39.3462 25.7464 36.9602 26.4587C34.5737 27.1704 32.0618 27.3574 29.5965 27.0061C25.4223 26.5061 21.5227 24.8939 17.6608 23.2692C17.0022 23.0008 16.2972 22.8649 15.586 22.8692H7.2122ZM42.1072 33.4929C41.9575 35.7799 40.42 38.4044 38.033 40.0667C35.671 41.7041 33.1962 41.9416 31.6587 40.9041C31.5585 40.8311 31.4622 40.7516 31.3715 40.6669C31.4838 38.5044 32.3962 36.4796 33.9212 34.9924C35.1335 34.8676 36.3333 34.7051 37.5455 34.4674L39.9577 34.0051C40.67 33.8551 41.395 33.6926 42.1072 33.5051V33.4929ZM28.6593 40.6544L28.3717 40.8916C26.822 41.9416 24.3473 41.7414 21.9602 40.0667C19.5855 38.3797 18.0357 35.7799 17.8982 33.4929C18.5981 33.6801 19.3105 33.8552 20.0354 33.9926L22.4476 34.4674C23.6474 34.6926 24.8597 34.8676 26.072 34.9801C27.612 36.4826 28.5347 38.5061 28.6593 40.6544Z" fill="#09090B"/>
</svg>
