<svg width="60" height="60" viewBox="0 0 60 60" fill="none" xmlns="http://www.w3.org/2000/svg">
<path fill-rule="evenodd" clip-rule="evenodd" d="M0 30C0 13.4315 13.4315 0 30 0C46.5685 0 60 13.4315 60 30C60 46.5685 46.5685 60 30 60C13.4315 60 0 46.5685 0 30ZM16.0853 36.9529C15.7757 37.4577 15.4281 38.0434 15.1329 38.5101C14.8686 38.9567 15.0105 39.5326 15.4519 39.8053L21.6424 43.6148C21.8597 43.749 22.1218 43.7903 22.3698 43.7294C22.6178 43.6685 22.831 43.5106 22.9615 43.291C23.2091 42.8768 23.5281 42.3387 23.8757 41.7625C26.3281 37.7149 28.7948 38.2101 33.2424 40.3339L39.3805 43.2529C39.613 43.3636 39.8803 43.3754 40.1217 43.2857C40.363 43.196 40.5577 43.0124 40.6615 42.7768L43.6091 36.1101C43.8173 35.6339 43.6054 35.0788 43.1329 34.8625C41.8377 34.2529 39.2615 33.0387 36.9424 31.9196C28.5996 27.8672 21.5091 28.1291 16.0853 36.9529ZM43.8424 21.8244C44.1519 21.3196 44.4996 20.7339 44.7948 20.2672C45.0591 19.8207 44.9172 19.2447 44.4757 18.972L38.2853 15.1625C38.0662 15.0149 37.7957 14.965 37.5384 15.0246C37.2811 15.0841 37.06 15.2479 36.9281 15.4768C36.6805 15.891 36.3615 16.4291 36.0138 17.0053C33.5615 21.0529 31.0948 20.5577 26.6472 18.4339L20.5281 15.5291C20.2957 15.4185 20.0283 15.4067 19.787 15.4964C19.5456 15.5861 19.3509 15.7697 19.2472 16.0053L16.2996 22.672C16.0913 23.1481 16.3032 23.7033 16.7757 23.9196C18.071 24.5291 20.6472 25.7434 22.9662 26.8625C31.3281 30.9101 38.4186 30.6387 43.8424 21.8244Z" fill="#09090B"/>
</svg>
