<svg width="16" height="16" viewBox="0 0 16 16" fill="none" xmlns="http://www.w3.org/2000/svg">
<path fill-rule="evenodd" clip-rule="evenodd" d="M6.62088 4.09375H1.3335V14.6685H6.62088C7.31516 14.6685 8.00276 14.5317 8.6443 14.266C9.2857 14.0003 9.86856 13.6109 10.3596 13.1198C10.8506 12.6289 11.24 12.0459 11.5058 11.4045C11.7715 10.763 11.9083 10.0754 11.9083 9.38112C11.9083 8.68679 11.7715 7.99926 11.5058 7.35772C11.24 6.71626 10.8506 6.13332 10.3596 5.64241C9.86856 5.1514 9.2857 4.76194 8.6443 4.49622C8.00276 4.23051 7.31516 4.09375 6.62088 4.09375ZM6.62088 5.47306H2.71282V13.2892H6.62088C7.6573 13.2892 8.65136 12.8775 9.3843 12.1445C10.1171 11.4116 10.5289 10.4175 10.5289 9.38112C10.5289 8.34466 10.1171 7.35066 9.3843 6.61769C8.65136 5.88475 7.6573 5.47306 6.62088 5.47306Z" fill="#020617"/>
<path d="M11.6685 10.9531L9.93981 11.4451C9.86161 11.5693 9.77435 11.6888 9.68701 11.7991L10.5926 12.8612C11.0754 12.3141 11.4479 11.6658 11.6685 10.9531Z" fill="#020617"/>
<path fill-rule="evenodd" clip-rule="evenodd" d="M9.37913 1.33594H4.0918V11.9106H9.37913C10.7814 11.9106 12.1263 11.3536 13.1179 10.362C14.1094 9.37047 14.6665 8.0256 14.6665 6.62333C14.6665 5.221 14.1094 3.87614 13.1179 2.88458C12.1263 1.893 10.7814 1.33594 9.37913 1.33594ZM9.37913 2.71524H5.47116V10.5313H9.37913C10.4157 10.5313 11.4096 10.1196 12.1425 9.38674C12.8755 8.6538 13.2873 7.65974 13.2873 6.62333C13.2873 5.58682 12.8755 4.59279 12.1425 3.85988C11.4096 3.12698 10.4157 2.71524 9.37913 2.71524Z" fill="#020617"/>
<path d="M5.47116 6.8481L4.0918 5.46875H5.47116V6.8481Z" fill="#020617"/>
</svg>
