<svg width="60" height="60" viewBox="0 0 60 60" fill="none" xmlns="http://www.w3.org/2000/svg">
<path fill-rule="evenodd" clip-rule="evenodd" d="M60 30C60 46.5685 46.5685 60 30 60C13.4315 60 0 46.5685 0 30C0 13.4315 13.4315 0 30 0C46.5685 0 60 13.4315 60 30ZM35.5752 11.3355L14.763 12.867C13.0848 13.0122 12.5 14.1062 12.5 15.4178V38.1646C12.5 39.1865 12.8645 40.06 13.7412 41.2275L18.6336 47.5704C19.4372 48.5917 20.1675 48.8103 21.702 48.7371L45.8711 47.2787C47.9153 47.1336 48.5 46.1851 48.5 44.5813V18.9906C48.5 18.1615 48.1717 17.922 47.204 17.2161C47.1507 17.1772 47.0956 17.137 47.0384 17.0951L40.3949 12.4292C38.7886 11.2632 38.131 11.1165 35.5752 11.3355Z" fill="#09090B"/>
<path fill-rule="evenodd" clip-rule="evenodd" d="M18.7076 17.8218C19.8748 18.7694 20.3127 18.6971 22.5045 18.551L43.1681 17.3111C43.6064 17.3111 43.2419 16.8742 43.0958 16.8016L39.6641 14.3226C39.0065 13.8125 38.1304 13.2282 36.4514 13.3744L16.4427 14.8327C15.713 14.905 15.5673 15.2695 15.8579 15.5618L18.7076 17.8218Z" fill="#09090B"/>
<path fill-rule="evenodd" clip-rule="evenodd" d="M19.9487 44.3652V22.6396C19.9487 21.692 20.2408 21.2542 21.1166 21.1807L44.8481 19.7959C45.653 19.723 46.0175 20.2337 46.0175 21.1807V42.7605C46.0175 43.709 45.8711 44.5121 44.5562 44.5843L21.8469 45.8973C20.5327 45.9696 19.9487 45.5328 19.9487 44.3652ZM41.7088 25.1919C42.3673 25.1181 42.5129 24.4618 42.3673 23.805L37.3274 24.0981C36.5971 24.1705 36.0137 24.7535 36.1595 25.5564L38.0586 25.7743V35.8358L30.6101 24.4621L25.2063 24.8261C24.1832 24.8996 23.8187 25.8466 23.965 26.5034L25.7902 26.6496V41.0124L24.4757 41.3764C23.9647 41.5224 23.8184 42.2508 23.9647 42.5428L29.002 42.2508C30.8292 42.2508 30.8292 40.9392 30.8292 40.9392L28.5644 40.4285V29.5655L35.7216 40.793C36.5971 41.886 36.8898 42.2508 38.0586 42.2508C38.7885 42.2508 39.6646 41.9592 40.6146 41.4489V25.4097L41.7088 25.1919Z" fill="#09090B"/>
</svg>
