<svg width="60" height="60" viewBox="0 0 60 60" fill="none" xmlns="http://www.w3.org/2000/svg">
<path d="M17.5265 28.255C17.5265 17.9022 26.8035 15.4698 33.1185 15.9999V5.24152C26.9582 4.45202 20.7247 5.98874 15.6373 9.55127C10.5499 13.1138 6.97435 18.4458 5.6097 24.5049C4.24507 30.5637 5.18955 36.9137 8.2585 42.3135C11.3274 47.7127 16.3001 51.7737 22.2041 53.7012V44.3927C22.1999 43.7277 22.3283 43.0685 22.5819 42.4535C22.8354 41.8382 23.2091 41.2802 23.6809 40.8112C24.1528 40.3425 24.7131 39.9725 25.3297 39.7225C25.9465 39.4727 26.6062 39.3485 27.2715 39.3567H30.1247C36.9695 39.3567 37.796 32.9172 37.796 31.7477C37.796 30.9527 37.4687 30.2197 37.0942 29.409C36.9072 29.019 36.7202 28.6137 36.5642 28.1615C36.1745 27.0702 36.7202 26.0722 37.063 25.714L39.5732 23.7645C41.3535 26.0557 42.368 28.8485 42.4735 31.7477C42.4735 42.1007 33.1965 44.5332 26.8817 44.003V54.7612C33.0422 55.5512 39.2752 54.0145 44.363 50.4515C49.45 46.8892 53.0255 41.5572 54.3902 35.4982C55.755 29.4392 54.8105 23.0889 51.7417 17.6896C48.6725 12.2901 43.7 8.22947 37.796 6.30177V15.6101C37.8 16.2753 37.6717 16.9346 37.418 17.5496C37.1645 18.1646 36.791 18.7228 36.3195 19.1917C35.8475 19.6606 35.287 20.0307 34.6702 20.2805C34.054 20.5303 33.3935 20.6546 32.7285 20.6463H29.8752C23.0304 20.6463 22.2041 27.0857 22.2041 28.255C22.2041 29.0505 22.5315 29.783 22.9056 30.594C23.0926 30.9837 23.28 31.3892 23.4357 31.8412C23.8257 32.9327 23.28 33.9305 22.9369 34.2892L20.4266 36.2382C18.6465 33.9472 17.6319 31.1547 17.5265 28.255Z" fill="#09090B"/>
</svg>
