<svg width="60" height="60" viewBox="0 0 60 60" fill="none" xmlns="http://www.w3.org/2000/svg">
<path fill-rule="evenodd" clip-rule="evenodd" d="M29.9998 55C43.8078 55 55 43.8078 55 29.9998C55 16.1921 43.8078 5 29.9998 5C16.1921 5 5 16.1921 5 29.9998C5 43.8078 16.1921 55 29.9998 55ZM50.8343 36.684C51.526 34.5235 51.877 32.2687 51.8748 29.9998C51.8748 17.9187 42.081 8.12497 29.9998 8.12497C24.7838 8.11748 19.7382 9.9814 15.7796 13.3781L15.9156 13.3C14.6781 14.1593 12.2828 17.2875 12.6062 22.9076C12.9281 28.5265 16.1562 31.047 18.5812 32.6768L19.5374 33.32C25.4438 37.2765 31.7423 41.4965 29.9655 45.1125C29.8045 44.1155 28.9155 41.8985 26.6545 40.9935C24.3937 40.089 19.0374 37.0093 16.6421 35.5842C13.8437 33.942 8.40777 29.3498 9.0531 24.1188C9.08905 23.8312 9.13123 23.5515 9.1781 23.2766C8.47823 25.4487 8.12287 27.7175 8.12497 29.9998C8.12497 42.081 17.9187 51.8748 29.9998 51.8748C36.5527 51.8748 42.431 48.9935 46.4402 44.4297C47.2435 43.103 48.5887 39.6937 48.0342 35.7545C47.3232 30.689 42.0202 24.3576 34.1063 21.6671C37.114 22.2202 44.1092 24.642 48.0342 29.8968C49.7562 32.203 50.556 34.5703 50.8343 36.684ZM39.3295 20.9546L41.3872 20.2421L40.1217 12.1703C37.7998 10.9297 31.7313 9.02028 26.0343 11.3C18.9109 14.1484 17.9812 19.9297 18.2968 23.0969C18.614 26.2608 19.6234 28.236 22.1562 29.8968C24.1811 31.2262 29.2265 34.197 31.4955 35.517C32.972 36.414 35.8638 38.92 35.6092 41.7685C35.2935 45.3312 33.981 47.4405 29.9905 47.7843C27.2202 48.02 22.0765 44.7765 19.703 38.5235L17.3109 38.8983L18.2031 46.8092C19.7265 48.2232 24.2154 50.9343 29.9905 50.4563C37.211 49.8575 43.1248 45.6453 43.1248 38.8983C43.1248 33.5013 39.5935 30.289 37.8283 29.3592L27.9012 23.6452C26.303 22.639 22.7155 18.6796 26.2673 14.7125C29.9548 10.5937 36.6812 15.0406 37.4702 16.903C38.0578 18.2681 38.6777 19.6191 39.3295 20.9546Z" fill="#09090B"/>
</svg>
