<svg width="16" height="16" viewBox="0 0 16 16" fill="none" xmlns="http://www.w3.org/2000/svg">
<path d="M10.3494 2.70843C10.3494 3.46513 9.2953 4.08092 7.99689 4.08092C6.69849 4.08092 5.64353 3.46513 5.64353 2.70843C5.64353 1.95173 6.70309 1.33594 7.99689 1.33594C9.2907 1.33594 10.3494 1.95173 10.3494 2.70843ZM10.3494 13.2968C10.3494 14.0535 9.2953 14.6693 7.99689 14.6693C6.69849 14.6693 5.64353 14.0535 5.64353 13.2968C5.64353 12.5401 6.70309 11.9243 7.99689 11.9243C9.2907 11.9243 10.3494 12.5401 10.3494 13.2968ZM4.605 6.0994C5.27112 4.95108 5.2757 3.70761 4.62056 3.33154C3.96176 2.9509 2.89488 3.57859 2.22876 4.72783C1.56173 5.87615 1.56173 7.11967 2.21229 7.49567C2.87109 7.87267 3.93798 7.24774 4.605 6.0994ZM13.7733 8.50494C14.4321 8.87734 14.4284 10.097 13.765 11.2261C13.0989 12.3553 12.0284 12.9674 11.3732 12.595C10.7108 12.2225 10.7144 11.0029 11.3769 9.87287C12.044 8.74374 13.1145 8.13254 13.7733 8.50494ZM4.62422 12.6023C5.28302 12.2299 5.27936 11.0102 4.61232 9.88107C3.94987 8.752 2.87932 8.13987 2.22052 8.51227C1.55807 8.88927 1.56173 10.1043 2.22876 11.2335C2.89122 12.3635 3.96176 12.9793 4.62056 12.6059L4.62422 12.6023ZM13.7733 4.7324C14.4394 5.88072 14.4394 7.12054 13.7852 7.4966C13.13 7.87727 12.0595 7.25414 11.3924 6.10124C10.7336 4.952 10.7264 3.7131 11.3806 3.33612C12.0394 2.95548 13.1062 3.57951 13.7733 4.7324Z" fill="#020617"/>
</svg>
