<svg width="60" height="60" viewBox="0 0 60 60" fill="none" xmlns="http://www.w3.org/2000/svg">
  <path fill-rule="evenodd" clip-rule="evenodd" d="M0 30C0 13.4315 13.4315 0 30 0C46.5685 0 60 13.4315 60 30C60 46.5685 46.5685 60 30 60C13.4315 60 0 46.5685 0 30ZM28.4745 22.0604V44.8144H10.1451L28.4745 22.0604ZM19.3099 23.3165C24.3714 23.3165 28.4745 19.0975 28.4745 13.8931H10.1451C10.1451 19.0975 14.2482 23.3165 19.3099 23.3165ZM31.4941 44.8145C31.4941 39.6101 35.5974 35.3911 40.6589 35.3911C45.7204 35.3911 49.8235 39.6101 49.8235 44.8145H31.4941ZM31.4941 13.8931V36.6471L49.8255 13.8931H31.4941Z" fill="#09090B"/>
</svg>
